<?xml version="1.0"?><svg width="640" height="480" xmlns="http://www.w3.org/2000/svg">
 <title>purple flame logo</title>

 <g>
  <title>Layer 1</title>
  <path id="svg_24" d="m285,54.5c32.56665,40.133339 -16.166656,101 -76,203.5c-59.833344,102.5 74.000031,154.166809 84.666687,155.166809c10.666687,1 -52.000015,-39.166809 -32.166687,-100.166809c19.833313,-61 67.533325,-95.533401 79.5,-142.100052c11.966675,-46.56665 -88.56665,-156.533278 -56,-116.399948z" stroke-linecap="square" stroke-linejoin="round" stroke-width="0" stroke="#ffffff" fill="#7229af"/>
  <path transform="rotate(-3.26396, 335.063, 270.832)" id="svg_25" d="m366.559448,172.442322c2.86554,6.775391 3.694244,18.909378 -0.716064,32.923737c-4.410309,14.014359 -10.059509,24.309097 -22.149902,41.005936c-12.090393,16.696854 -24.66864,27.332138 -47.303619,63.122482c-22.634979,35.790344 17.157013,74.647736 9.86441,61.651093c-7.292603,-12.996643 3.8573,-37.864044 17.459106,-52.518738c13.601807,-14.654694 22.8685,-26.198517 32.048187,-38.119965c18.359467,-23.842804 23.68692,-39.454315 24.555084,-53.205795c0.868164,-13.75148 0.953461,-18.142258 -3.635101,-33.244324c-4.588593,-15.102066 -15.85321,-35.165222 -10.122101,-21.614426z" stroke-linecap="square" stroke-linejoin="round" stroke-width="0" stroke="#0090ff" fill="#ae5ce4"/>
  <path id="svg_26" d="m339.62088,404.224854c-5.172333,9.162567 -6.648224,-19.291168 2.557373,-43.922394c9.205597,-24.631226 38.26416,-46.296143 50.758484,-69.59668c12.494354,-23.300568 20.384644,-58.53685 10.367523,-77.282013c-10.017059,-18.745163 1.768799,2.157471 10.212433,15.570419c8.443665,13.412933 13.19574,23.269653 12.984589,45.202988c-0.211121,21.93335 -5.942566,47.649567 -43.783234,81.277832c-37.840668,33.628296 -37.924835,39.58728 -43.097168,48.749847z" stroke-linecap="square" stroke-linejoin="round" stroke-dasharray="null" stroke-width="0" stroke="#0090ff" fill="#ae5ce4"/>
 </g>
</svg>